<svg xmlns="http://www.w3.org/2000/svg" width="24" height="24" fill="currentColor" viewBox="0 0 16 16">
  <path d="M13.601 2.326A7.854 7.854 0 0 0 8.01 0C3.656 0 .116 3.54.116 7.894c0 1.392.364 2.75 1.055 3.947L0 16l4.265-1.117a7.85 7.85 0 0 0 3.745.954h.003c4.354 0 7.894-3.54 7.894-7.894a7.85 7.85 0 0 0-2.306-5.617ZM8.013 14.49h-.003a6.5 6.5 0 0 1-3.31-.908l-.237-.14-2.53.663.676-2.466-.154-.253a6.48 6.48 0 0 1-.993-3.492c.002-3.584 2.918-6.5 6.504-6.5 1.737 0 3.37.676 4.598 1.905a6.45 6.45 0 0 1 1.9 4.599c-.002 3.585-2.918 6.5-6.451 6.5Zm3.562-4.87c-.195-.098-1.156-.57-1.335-.634-.179-.067-.31-.098-.44.098-.13.195-.505.634-.619.764-.114.13-.228.147-.423.049-.195-.098-.824-.304-1.57-.97-.58-.517-.972-1.156-1.086-1.351-.114-.195-.012-.3.086-.397.088-.087.195-.228.293-.342.098-.114.13-.195.195-.326.065-.13.033-.245-.016-.342-.049-.098-.44-1.06-.602-1.45-.158-.38-.319-.329-.44-.335l-.375-.007a.723.723 0 0 0-.521.244c-.179.196-.684.668-.684 1.628 0 .96.7 1.889.798 2.02.098.13 1.378 2.105 3.34 2.952.467.202.831.323 1.115.413.468.149.894.128 1.23.078.376-.056 1.156-.472 1.319-.929.163-.456.163-.847.114-.929-.049-.081-.179-.13-.374-.228Z"/>
</svg>
